<svg width="999" height="999" viewBox="0 0 999 999" fill="none" xmlns="http://www.w3.org/2000/svg">
<path d="M0 499.284C0 223.537 223.537 0 499.284 0C775.032 0 998.569 223.537 998.569 499.284C998.569 775.032 775.032 998.569 499.284 998.569C223.537 998.569 0 775.032 0 499.284ZM499.284 965.124C756.56 965.124 965.127 756.56 965.124 499.284C965.124 242.008 756.56 33.4417 499.284 33.4417C242.008 33.4417 33.4417 242.006 33.4417 499.284C33.4417 756.56 242.006 965.127 499.284 965.124Z" fill="white"/>
<path d="M499.284 978.596C764.001 978.596 978.596 764.001 978.596 499.284C978.596 234.567 764.001 19.9714 499.284 19.9714C234.567 19.9714 19.9714 234.567 19.9714 499.284C19.9714 764.001 234.567 978.596 499.284 978.596Z" fill="white"/>
<path d="M770.505 273.616L770.519 273.604L770.533 273.593C772.926 271.618 774.788 269.853 776.066 268.307C777.277 266.843 778.234 265.262 778.234 263.699C778.234 262.876 777.982 262.095 777.461 261.432C776.961 260.795 776.286 260.358 775.572 260.054C774.179 259.463 772.298 259.237 770.099 259.237C765.64 259.237 760.208 259.7 753.821 260.611C752.375 260.817 746.611 261.016 736.293 261.187C726.056 261.356 711.487 261.497 692.583 261.61C671.779 261.735 645.729 261.825 614.434 261.881C608.761 256.275 600.779 251.475 590.602 247.426L590.595 247.424C578.389 242.624 564.033 240.25 547.568 240.25C508.841 240.25 470.446 247.847 432.394 263.023L432.389 263.025C423.533 266.587 414.99 270.328 406.759 274.249C388.439 277.996 370.134 282.601 351.844 288.061L351.842 288.062C293.497 305.544 244.077 326.848 203.611 351.993L203.608 351.995C163.213 377.187 130.257 403.179 104.771 429.984C79.3468 456.724 66.25 480.208 66.25 500.356C66.25 513.869 72.1911 524.109 83.94 530.862C95.543 537.531 112.722 540.758 135.248 540.758C179.13 540.758 224.817 524.551 272.28 492.333C281.5 496.17 293.143 498.038 307.105 498.038C329.206 498.038 353.19 491.418 379.029 478.299C349.388 532.424 319.694 586.738 289.945 641.241C270.698 676.503 256.26 703.217 246.632 721.377C241.818 730.455 238.202 737.406 235.787 742.221C234.581 744.627 233.667 746.515 233.051 747.877C232.744 748.555 232.501 749.124 232.332 749.572C232.248 749.794 232.173 750.01 232.117 750.207C232.072 750.362 231.993 750.658 231.993 750.982C231.993 751.778 232.192 752.554 232.643 753.244C233.087 753.925 233.71 754.422 234.408 754.778C235.752 755.465 237.545 755.716 239.585 755.716C242.765 755.716 246.877 754.728 251.859 752.861C252.085 754.039 252.556 755.1 253.361 755.949C254.593 757.25 256.317 757.75 258.197 757.75C262.077 757.75 266.316 755.079 270.826 750.612C282.818 743.437 311.939 722.441 358.084 687.724C403.664 653.431 465.937 605.687 544.9 544.495C532.397 584.897 526.119 620.598 526.119 651.573C526.119 681.581 531.804 704.407 543.457 719.762C555.18 735.209 572.735 742.832 595.797 742.832C608.215 742.832 625.157 737.48 646.492 727.058C667.85 716.624 693.809 701.006 724.357 680.231C728.538 678.343 731.364 675.659 731.364 671.916C731.364 670.518 731.306 669.309 731.18 668.308C731.059 667.338 730.859 666.426 730.499 665.707L729.639 663.989L728.008 665.006L706.271 678.568C691.854 687.563 675.166 696.435 656.199 705.181L656.192 705.184C637.177 714.042 623.45 718.311 614.816 718.311C596.908 718.311 583.728 712.324 574.954 700.537C566.108 688.654 561.545 670.619 561.545 646.148C561.545 610.812 570.709 565.525 589.138 510.228C658.264 456.555 722.43 406.257 781.636 359.335C805.127 341.297 832.789 322.345 864.629 302.479C880.598 292.544 893.798 284.767 904.237 279.141C914.715 273.493 922.293 270.077 927.063 268.778L927.296 268.715L927.503 268.591C930.312 266.908 931.75 264.294 931.75 260.987C931.75 257.693 930.204 254.578 927.485 251.666C924.83 248.725 921.814 247.031 918.452 247.031C912.876 247.031 905.644 249.071 896.859 252.944C888.035 256.833 877.483 262.645 865.217 270.355L865.19 270.372L865.163 270.39C855.197 277.173 844.325 284.635 832.548 292.774C820.749 300.928 810.615 308.413 802.15 315.228L802.143 315.234C793.842 321.989 777.024 334.852 751.66 353.842C726.753 372.49 676.363 412.666 600.518 474.344C624.745 395.068 636.945 340.156 636.945 309.81V309.723L636.936 309.636L636.261 302.9C636.26 302.892 636.259 302.884 636.259 302.876C635.961 298.893 635.132 294.925 633.781 290.973L705.833 291.217H705.839C720.484 291.217 733.717 289.253 745.518 285.296C757.061 281.485 765.455 277.611 770.505 273.616ZM525.831 255.278C543.705 255.278 558.239 257.531 569.544 261.935C556.153 261.944 542.035 261.949 527.19 261.949C505.116 261.949 483.062 263.185 461.028 265.656C483.439 258.73 505.038 255.278 525.831 255.278ZM338.553 314.207C340.006 313.8 341.461 313.397 342.918 313C340.528 314.852 338.181 316.73 335.878 318.632C309.507 340.419 288.104 363.368 271.694 387.485C255.297 411.584 246.937 433.178 246.937 452.211C246.937 459.99 248.27 466.836 250.964 472.704C248.947 473.823 246.916 474.932 244.87 476.03L244.869 476.031C200.749 499.768 165.15 511.49 137.965 511.49C124.294 511.49 114.347 509.187 107.864 504.836C101.504 500.569 98.2796 494.2 98.2796 485.438C98.2796 470.763 107.84 452.653 127.707 431.017C147.491 409.472 174.295 388.323 208.165 367.585C241.95 346.9 285.397 329.098 338.552 314.208L338.553 314.207ZM276.26 729.631C305.874 673.537 355.955 579.984 426.506 448.968L428.501 445.262C435.485 439.902 442.116 434.307 448.394 428.478C467.867 410.395 484.26 392.99 497.573 376.264L498.939 377.358C498.939 377.358 498.94 377.358 498.94 377.357C505.663 368.968 510.743 361.95 514.151 356.318C515.855 353.502 517.16 351.001 518.045 348.824C518.92 346.669 519.43 344.718 519.43 343.037C519.43 340.263 519.171 337.968 518.533 336.307C518.209 335.463 517.747 334.674 517.07 334.087C516.358 333.469 515.494 333.15 514.555 333.15C512.864 333.15 511.404 334.106 510.191 335.395C508.985 336.676 507.82 338.493 506.676 340.757C488.254 365.443 469.659 386.417 450.893 403.7C466.604 374.572 478.401 352.531 486.283 337.581C490.247 330.063 493.225 324.33 495.213 320.388C496.206 318.42 496.959 316.884 497.467 315.792C497.719 315.248 497.92 314.794 498.061 314.442C498.131 314.268 498.196 314.095 498.245 313.937L498.247 313.931C498.279 313.83 498.372 313.534 498.372 313.201V312.359L497.715 311.833L494.318 309.121L493.586 308.536L492.694 308.821L475.712 314.246L475.684 314.255L475.657 314.265C469.043 316.623 464.136 320.229 461.159 325.183L460.184 326.805L460.559 326.992C460.533 327.052 460.506 327.114 460.478 327.179C459.998 328.276 459.211 329.926 458.104 332.143C455.895 336.57 452.462 343.168 447.799 351.947C438.476 369.499 424.261 395.722 405.152 430.62C403.096 434.37 401.041 438.121 398.984 441.873C371.43 457.114 343.52 464.701 315.256 464.701C313.246 464.701 311.318 464.643 309.472 464.529C340.017 439.254 360.416 414.831 370.509 391.237C371.1 390.032 371.348 388.632 371.348 387.113C371.348 386.296 371.222 385.376 370.714 384.616C370.123 383.731 369.201 383.329 368.24 383.329C367.416 383.329 366.592 383.602 365.83 383.966C365.047 384.34 364.201 384.872 363.3 385.532C361.498 386.851 359.332 388.786 356.814 391.3L356.792 391.322L356.771 391.344C335.193 414.469 310.322 435.306 282.152 453.852C278.251 449.253 276.25 443.109 276.25 435.259C276.25 420.873 283.256 403.468 297.668 382.966C312.058 362.587 330.605 342.806 353.333 323.628C361.522 316.778 370.291 310.297 379.641 304.186C420.122 295.761 462.062 291.212 505.464 290.539L598.948 290.855C602.902 300.72 604.915 312.889 604.915 327.441C604.915 339.377 601.132 358.607 593.437 385.269C589.364 399.274 585.608 411.786 582.171 422.803L582.168 422.811L582.166 422.819C578.818 433.928 574.066 449.199 567.908 468.635L567.906 468.642C561.951 487.718 557.605 502.02 554.871 511.539C541.659 522.01 518.927 540.436 486.684 566.812C454.085 593.478 431.216 612.239 418.078 623.093C360.761 669.657 313.493 705.162 276.26 729.631Z" fill="#111111" stroke="black" stroke-width="3.5"/>
</svg>
